<?xml version="1.0" encoding="UTF-8"?>
<svg version="1.1" xmlns="http://www.w3.org/2000/svg" width="2052" height="2048">
<path d="M0 0 C0.75454468 0.0608075 1.50908936 0.12161499 2.28649902 0.18426514 C88.68521957 7.16939799 174.29807658 26.48639416 370 114 C371.59352295 114.92546631 371.59352295 114.92546631 373.21923828 115.86962891 C389.12834998 125.11066373 404.71952544 134.74997171 420 145 C420.83998535 145.56315918 421.6799707 146.12631836 422.54541016 146.70654297 C438.74987166 157.6086565 454.62080542 168.95996057 470 181 C471.17444644 181.91540657 472.34892665 182.83076982 473.5234375 183.74609375 C488.36812883 195.33872641 502.8464872 207.34557885 516.79296875 220.0078125 C518.73626001 221.76193381 520.70359448 223.47972694 522.6875 225.1875 C534.83494832 235.80812374 546.31166335 247.14962225 557.70068359 258.5703125 C560.02196315 260.89701445 562.34862663 263.21823828 564.67578125 265.5390625 C566.18000867 267.04394988 567.68392631 268.54914697 569.1875 270.0546875 C569.86989746 270.73506073 570.55229492 271.41543396 571.25537109 272.11642456 C575.14394682 276.02380628 578.85694503 280.03290751 582.45120239 284.21308899 C584.85153873 286.98245499 587.36817809 289.63993431 589.875 292.3125 C594.33826707 297.10995628 598.56974429 302.03162373 602.671875 307.14453125 C604.81387324 309.77171365 607.01082587 312.3333903 609.23779297 314.88793945 C615.34499813 321.90323889 621.04696658 329.16274191 626.6484375 336.5859375 C628.89141967 339.55594619 631.16685234 342.4956515 633.4765625 345.4140625 C641.25449729 355.24848109 648.49308481 365.33044141 655.47705078 375.7421875 C657.37979347 378.56305387 659.31731343 381.35877124 661.25805664 384.15356445 C672.9264595 400.98198973 683.59682414 418.36462446 694 436 C694.5273877 436.89203125 695.05477539 437.7840625 695.59814453 438.703125 C721.80743457 483.21880615 743.4405776 530.45405512 761 579 C761.25158875 579.694422 761.50317749 580.38884399 761.76239014 581.10430908 C788.90142841 656.20834905 805.4418142 735.22424175 812 828 C812.04236786 828.74189575 812.08473572 829.4837915 812.12838745 830.24816895 C813.03916651 846.4981391 813.20135539 862.72709893 813.1875 879 C813.18689575 880.31770386 813.1862915 881.63540771 813.18566895 882.99304199 C813.1648148 904.71739057 812.75514082 926.34256584 811 948 C810.93683594 948.78240051 810.87367187 949.56480103 810.80859375 950.37091064 C807.6469025 988.94180027 801.98884858 1027.13910884 794 1065 C793.85173767 1065.70842041 793.70347534 1066.41684082 793.55072021 1067.14672852 C777.14246652 1145.45000216 748.8673851 1221.2918084 694.58544922 1322.32568359 C693.14957624 1324.74769662 691.72869782 1327.17746599 690.31640625 1329.61328125 C676.80555309 1352.89233207 661.83473589 1375.24160203 646 1397 C645.22172852 1398.07580322 645.22172852 1398.07580322 644.42773438 1399.17333984 C636.71709668 1409.82104571 628.75448173 1420.18541134 620.38085938 1430.31933594 C618.51780455 1432.5868871 616.69562664 1434.88581347 614.875 1437.1875 C610.51439494 1442.65194024 605.99097289 1447.97545238 601.453125 1453.29248047 C600.01462545 1454.98281411 598.58474563 1456.68011492 597.15625 1458.37890625 C587.78028504 1469.48323275 577.94821539 1480.18966779 567.58374023 1490.38061523 C565.9331849 1492.06831888 564.39969479 1493.82336464 562.875 1495.625 C555.86923913 1503.73776597 548.12749686 1511.32972371 539.95703125 1518.26171875 C537.53547011 1520.41260639 535.27625205 1522.69611515 533 1525 C529.4882345 1528.54918157 525.90991099 1531.91968457 522.1171875 1535.1640625 C519.59400545 1537.3520617 517.14445481 1539.61293113 514.6875 1541.875 C510.19851943 1545.96880209 505.58756524 1549.85469667 500.859375 1553.66796875 C498.36180224 1555.70492358 495.90746921 1557.78357627 493.46435547 1559.88525391 C485.87669344 1566.40061961 477.97323442 1572.45719923 469.99560547 1578.48486328 C468.20805895 1579.84203403 466.43098692 1581.2109756 464.66015625 1582.58984375 C392.02591172 1639.10349933 308.67712208 1682.54610145 5 1759 C3.84902832 1759.09619629 2.69805664 1759.19239258 1.51220703 1759.29150391 C-25.21358652 1761.48516471 -52.18230034 1762.46888865 -79 1762 C-80.17739746 1761.98211426 -81.35479492 1761.96422852 -82.56787109 1761.94580078 C-166.85690017 1760.52735133 -251.05836626 1747.8103049 -342 1719 C-343.83135498 1718.4126709 -343.83135498 1718.4126709 -345.69970703 1717.81347656 C-364.09332059 1711.90523936 -382.12428628 1705.32573039 -400 1698 C-401.08732422 1697.55543457 -402.17464844 1697.11086914 -403.29492188 1696.65283203 C-438.86887426 1682.03332637 -473.79533539 1665.43794704 -507 1646 C-508.6102002 1645.06220703 -508.6102002 1645.06220703 -510.25292969 1644.10546875 C-533.8403988 1630.34780773 -556.72626696 1615.8041503 -579 1600 C-579.81484863 1599.42362793 -580.62969727 1598.84725586 -581.46923828 1598.25341797 C-605.91095164 1580.9301566 -629.55543001 1562.19361912 -651.73828125 1542.046875 C-653.80673875 1540.1749031 -655.89560914 1538.3313661 -658 1536.5 C-664.57206974 1530.7643755 -671.0854145 1525.00865918 -677.19189453 1518.77563477 C-678.95100573 1517.04811441 -680.76866171 1515.44682591 -682.64453125 1513.84765625 C-687.31797955 1509.78173477 -691.69488141 1505.45234566 -696.0625 1501.0625 C-696.82626953 1500.30259766 -697.59003906 1499.54269531 -698.37695312 1498.75976562 C-702.58815414 1494.54135982 -706.61664957 1490.22935197 -710.50561523 1485.71264648 C-712.25069277 1483.7126924 -714.0908742 1481.84329388 -716 1480 C-719.19261312 1476.8501997 -722.17161279 1473.58780511 -725.09375 1470.1875 C-727.30945648 1467.64488601 -729.59098592 1465.16889802 -731.875 1462.6875 C-736.32454231 1457.80369305 -740.53016496 1452.77026043 -744.67626953 1447.62841797 C-746.16642533 1445.79526799 -747.67362785 1443.97702216 -749.18359375 1442.16015625 C-761.84942693 1426.91128953 -773.96913934 1411.3247059 -785.45605469 1395.16748047 C-786.92370333 1393.10710972 -788.40189863 1391.05475373 -789.8828125 1389.00390625 C-836.87819577 1323.60085961 -873.45517824 1251.20441345 -927 1087 C-927.17253296 1086.28193176 -927.34506592 1085.56386353 -927.52282715 1084.82403564 C-938.15445371 1040.45529305 -945.15251466 995.3541143 -948.75 949.875 C-948.80925659 949.12723297 -948.86851318 948.37946594 -948.92956543 947.60903931 C-950.6700223 925.22379486 -951.20623803 902.88757403 -951.1875 880.4375 C-951.18723312 879.76934391 -951.18696625 879.10118782 -951.18669128 878.41278458 C-951.1755987 856.22459006 -950.85036222 834.12032175 -949 812 C-948.93447937 811.213974 -948.86895874 810.427948 -948.80145264 809.61810303 C-941.7565759 726.22997692 -923.79121434 644.33245547 -830.61132812 433.70947266 C-829.1536505 431.25836564 -827.72041087 428.79525213 -826.296875 426.32421875 C-819.6007943 414.79989845 -812.26382103 403.71203253 -804.875 392.625 C-804.36366516 391.85700073 -803.85233032 391.08900146 -803.32550049 390.29772949 C-794.86755504 377.61267646 -786.19282895 365.10409228 -777 352.9375 C-776.49710449 352.27032959 -775.99420898 351.60315918 -775.47607422 350.91577148 C-773.98627544 348.94215268 -772.49328916 346.97097838 -771 345 C-770.36626465 344.15937012 -770.36626465 344.15937012 -769.71972656 343.30175781 C-756.63776164 325.9610388 -742.59202567 309.28763593 -727.9921875 293.20703125 C-726.23806619 291.26373999 -724.52027306 289.29640552 -722.8125 287.3125 C-712.4597122 275.46779846 -701.42000712 264.25668979 -690.28417969 253.15380859 C-688.10233092 250.97738731 -685.92597087 248.79557761 -683.75 246.61328125 C-682.33625848 245.20019963 -680.92220726 243.78742777 -679.5078125 242.375 C-678.87118683 241.7363501 -678.23456116 241.0977002 -677.5786438 240.43969727 C-673.77824352 236.6587792 -669.86555887 233.06143756 -665.80229187 229.56417847 C-663.02902074 227.15730362 -660.36535298 224.6367813 -657.6875 222.125 C-652.8935086 217.66495644 -647.97489004 213.43690447 -642.8671875 209.3359375 C-639.58420967 206.66124984 -636.38746861 203.89780652 -633.1875 201.125 C-626.91621188 195.71497903 -620.47674568 190.56300694 -613.92626953 185.49658203 C-611.8476239 183.88161401 -609.7807301 182.25234745 -607.71484375 180.62109375 C-598.35788991 173.25261987 -588.84591088 166.18749563 -579.04833984 159.41601562 C-577.05546945 158.03834598 -575.06835605 156.65270939 -573.08203125 155.265625 C-548.54244566 138.1917945 -523.16160594 122.45727108 -497 108 C-496.04254883 107.46906738 -495.08509766 106.93813477 -494.09863281 106.39111328 C-416.60544721 63.52614734 -332.77362668 32.73143895 -169 3 C-167.97576935 2.88171844 -167.97576935 2.88171844 -166.93084717 2.76104736 C-157.30114691 1.66001617 -147.66192232 0.76424717 -138 0 C-136.71254883 -0.10441406 -135.42509766 -0.20882812 -134.09863281 -0.31640625 C-89.84461372 -3.79833097 -44.23444937 -3.67108908 0 0 Z " fill="#000000" transform="translate(1095,144)"/>
<path d="M0 0 C1.19205111 -0.00066278 1.19205111 -0.00066278 2.40818405 -0.00133896 C26.64274512 -0.00838445 50.71906366 0.29152298 74.8293457 3 C77.14390562 3.2591133 79.45949314 3.50705441 81.77539062 3.75390625 C116.18992667 7.47265115 150.58560129 13.40423092 184.0625 22.25 C185.11743652 22.52215332 186.17237305 22.79430664 187.25927734 23.07470703 C274.35971126 45.63464723 355.12056363 84.25875524 448.0625 149.25 C448.82111328 149.8289502 449.57972656 150.40790039 450.36132812 151.00439453 C459.1392621 157.70705152 467.75813042 164.55345559 476.1328125 171.75390625 C478.83943733 174.05995061 481.5942574 176.28448253 484.375 178.5 C489.90698372 182.99372285 495.06944839 187.84859277 500.22973633 192.75878906 C503.29840243 195.67632172 506.38013642 198.53813678 509.609375 201.27734375 C515.73091709 206.59147748 521.37900338 212.41807756 527.09887695 218.15600586 C529.12014268 220.1826298 531.14669574 222.20385547 533.17382812 224.22460938 C539.35146656 230.3990616 545.41026313 236.58530178 551.0625 243.25 C552.83612033 245.20477176 554.63836054 247.13099142 556.4375 249.0625 C560.7312538 253.71038542 564.7978184 258.49416348 568.765625 263.42578125 C570.78790221 265.9123568 572.85425688 268.35304082 574.94482422 270.78222656 C586.19659603 283.88586085 596.37662452 297.84119564 606.39013672 311.90234375 C607.51935954 313.4875418 608.65126387 315.07083259 609.78564453 316.65234375 C618.7738389 329.19517708 627.08147352 342.04621591 635.0625 355.25 C635.88220977 356.59151431 636.70247476 357.93268961 637.5234375 359.2734375 C647.81779026 376.15928209 657.11470955 393.62006485 666.0625 411.25 C666.64161133 412.39065918 667.22072266 413.53131836 667.81738281 414.70654297 C682.90679694 444.57118936 695.33219318 475.56609994 706.0625 507.25 C706.40297363 508.24692871 706.74344727 509.24385742 707.09423828 510.27099609 C725.00543584 563.09813399 741.0625 623.13029929 741.0625 679.25 C588.2725 679.25 435.4825 679.25 278.0625 679.25 C276.4125 673.31 274.7625 667.37 273.0625 661.25 C258.62931438 613.82310236 235.05357469 569.89421534 199.0625 535.25 C194.0625 530.25 194.0625 530.25 192.25390625 528.3359375 C185.7279765 521.5585499 178.54576797 515.91057173 171.0625 510.25 C170.46663086 509.79334961 169.87076172 509.33669922 169.25683594 508.86621094 C138.43672644 485.28606191 103.46787133 469.20572279 66.0625 459.25 C64.66532363 458.85821894 63.26818409 458.4663065 61.87109375 458.07421875 C57.63619235 456.9326181 53.37498865 456.04560407 49.0625 455.25 C48.07749512 455.06808105 47.09249023 454.88616211 46.07763672 454.69873047 C14.11896025 449.10513463 -20.9916509 448.20249065 -52.9375 454.25 C-53.88351074 454.41628906 -54.82952148 454.58257813 -55.80419922 454.75390625 C-94.78381536 461.6676828 -133.35806995 476.56657183 -165.9375 499.25 C-166.515 499.64783691 -167.0925 500.04567383 -167.6875 500.45556641 C-178.55002749 507.95574366 -188.73359458 516.1119787 -198.484375 525.01953125 C-200.08256558 526.47266313 -201.69659256 527.90862443 -203.328125 529.32421875 C-215.24849077 539.72569921 -225.47674655 551.60813553 -234.9375 564.25 C-235.34532715 564.79027832 -235.7531543 565.33055664 -236.17333984 565.88720703 C-261.75179244 599.96779316 -277.64813142 638.09252569 -287.9375 679.25 C-437.7575 679.25 -587.5775 679.25 -741.9375 679.25 C-739.53414575 652.81310328 -739.53414575 652.81310328 -737.75 640.125 C-737.6455658 639.37563171 -737.54113159 638.62626343 -737.43353271 637.85418701 C-734.94970369 620.18591704 -731.638014 602.70060835 -727.9375 585.25 C-727.72833954 584.26060425 -727.72833954 584.26060425 -727.51495361 583.2512207 C-723.05882608 562.26493493 -717.32461856 541.71727651 -710.9375 521.25 C-710.72287109 520.56143921 -710.50824219 519.87287842 -710.28710938 519.16345215 C-693.98148378 467.03532772 -671.7221331 416.29164489 -643.9375 369.25 C-643.3997998 368.33557129 -642.86209961 367.42114258 -642.30810547 366.47900391 C-616.66427717 323.06372279 -586.66372146 281.93307689 -552.390625 244.921875 C-550.34062483 242.68907227 -548.34575421 240.42728295 -546.375 238.125 C-542.89954272 234.10780478 -539.12364552 230.42006825 -535.34375 226.69140625 C-533.27013807 224.58749804 -531.33995875 222.4444263 -529.4375 220.1875 C-526.16605636 216.36827975 -522.52153976 213.12593894 -518.75 209.80859375 C-515.49534709 206.84776367 -512.40345987 203.75470821 -509.3125 200.625 C-504.6792702 195.94990367 -499.96083444 191.50647892 -494.9375 187.25 C-493.7917092 186.25405137 -492.64731753 185.25649207 -491.50390625 184.2578125 C-484.08843814 177.78518175 -476.60595314 171.42268343 -468.9375 165.25 C-467.82271996 164.34138712 -466.70814824 163.43251861 -465.59375 162.5234375 C-436.51282282 138.90679875 -405.2834491 118.10303333 -372.9375 99.25 C-372.02790527 98.71971191 -371.11831055 98.18942383 -370.18115234 97.64306641 C-344.02452301 82.49269607 -316.87660533 68.80063602 -288.9375 57.25 C-287.71869141 56.74549316 -286.49988281 56.24098633 -285.24414062 55.72119141 C-232.73761934 34.10431615 -178.00231383 18.31625855 -121.9375 9.25 C-120.34059326 8.98775635 -120.34059326 8.98775635 -118.71142578 8.72021484 C-104.58505036 6.42567343 -90.4081933 4.64748644 -76.1875 3.0625 C-75.44605743 2.97773407 -74.70461487 2.89296814 -73.94070435 2.80563354 C-49.37164267 0.02002797 -24.69472375 0.00631643 0 0 Z " fill="#FE1B1B" transform="translate(1030.9375,284.75)"/>
<path d="M0 0 C152.79 0 305.58 0 463 0 C465.97 10.56 468.94 21.12 472 32 C480.02394309 55.13570259 490.366286 77.60450021 504 98 C504.4832373 98.72364746 504.96647461 99.44729492 505.46435547 100.19287109 C512.06782487 109.98525965 519.1963881 119.14184595 527 128 C527.63550781 128.73476562 528.27101563 129.46953125 528.92578125 130.2265625 C530.60390517 132.16315608 532.30115718 134.08157886 534 136 C534.66128906 136.76570313 535.32257812 137.53140625 536.00390625 138.3203125 C541.89935006 145.04892279 548.26164438 151.13244726 555 157 C555.61343262 157.53641113 556.22686523 158.07282227 556.85888672 158.62548828 C589.40068488 186.84793932 630.1755681 209.6203771 672.375 219.17578125 C674.74433769 219.7144992 677.10087884 220.31400067 679.4375 220.98046875 C715.19199389 231.03642016 756.54421082 231.27429013 793 225 C793.825 224.86078125 794.65 224.7215625 795.5 224.578125 C801.05769727 223.60372353 806.52949874 222.37873562 812 221 C812.94133789 220.76297363 813.88267578 220.52594727 814.85253906 220.28173828 C875.19389477 204.79289206 932.80094578 171.11498023 971 121 C971.92824365 119.81238918 972.85663929 118.62489715 973.78515625 117.4375 C981.56036113 107.38696586 988.4321311 96.87111778 995 86 C995.4031543 85.3409668 995.80630859 84.68193359 996.22167969 84.00292969 C1011.04061627 59.6079028 1020.63484789 32.32319936 1027.08984375 4.62890625 C1028 1 1028 1 1029 0 C1031.40862615 -0.09876619 1033.78857126 -0.13178764 1036.19771671 -0.12304783 C1037.3466974 -0.1247786 1037.3466974 -0.1247786 1038.51888981 -0.12654433 C1041.11857647 -0.12921818 1043.71820276 -0.12468256 1046.31788635 -0.12025452 C1048.18728412 -0.12069006 1050.05668183 -0.12156466 1051.92607921 -0.12284368 C1057.08874052 -0.12509193 1062.25138129 -0.12106289 1067.41403997 -0.11606562 C1072.97167486 -0.111766 1078.5293085 -0.1132072 1084.08694458 -0.1139679 C1093.72446024 -0.11449344 1103.36196915 -0.11134345 1112.99948311 -0.10573006 C1126.93388521 -0.09761919 1140.86828403 -0.09500026 1154.80268823 -0.09374207 C1177.40776748 -0.09155089 1200.01284284 -0.0848976 1222.61791992 -0.07543945 C1244.58276348 -0.06625977 1266.54760608 -0.05917383 1288.51245117 -0.05493164 C1289.18912697 -0.05480011 1289.86580278 -0.05466859 1290.5629839 -0.05453308 C1297.35824444 -0.05321459 1304.15350499 -0.05193877 1310.94876554 -0.05069422 C1367.96584622 -0.04024751 1424.98292293 -0.02259609 1482 0 C1482.01214774 1.72410326 1482.02071644 3.44823191 1482.02783203 5.17236328 C1482.03558151 6.61254318 1482.03558151 6.61254318 1482.04348755 8.08181763 C1481.97435284 12.72102351 1481.45224456 17.27522753 1480.875 21.875 C1480.74448242 22.92888916 1480.61396484 23.98277832 1480.47949219 25.06860352 C1474.13383515 74.45146337 1463.46437708 122.67273311 1448 170 C1447.65001953 171.07588379 1447.30003906 172.15176758 1446.93945312 173.26025391 C1432.38260142 217.62883311 1412.86444449 260.82192061 1389.57421875 301.26171875 C1388.11244908 303.80439999 1386.66355368 306.35390228 1385.21875 308.90625 C1365.63747091 343.33920372 1342.57020894 375.54614319 1317.49707031 406.16650391 C1316.16580047 407.79694039 1314.84393831 409.43504819 1313.5234375 411.07421875 C1308.9713327 416.71207293 1304.23300382 422.12335167 1299.328125 427.45703125 C1297.39305738 429.57067054 1295.49791703 431.70659848 1293.625 433.875 C1284.53571318 444.30424806 1274.93968168 454.22370557 1265.14404297 463.98632812 C1263.23417006 465.89078505 1261.32977851 467.80060819 1259.42578125 469.7109375 C1253.96767931 475.172009 1248.52880756 480.59876771 1242.64208984 485.60302734 C1240.08204919 487.78092693 1237.64686513 490.08417877 1235.1875 492.375 C1230.61567543 496.59398254 1225.92745156 500.61147468 1221.078125 504.51171875 C1218.77859241 506.37060486 1216.50086452 508.24614776 1214.234375 510.14453125 C1203.44338094 519.16363893 1192.32468456 527.66396269 1181 536 C1180.25137695 536.5554248 1179.50275391 537.11084961 1178.73144531 537.68310547 C1099.62277592 596.33628151 1006.48141895 638.53272511 807 677 C805.75943848 677.11714355 804.51887695 677.23428711 803.24072266 677.35498047 C782.6310311 679.17499391 761.98583441 679.17939035 741.3125 679.1875 C740.64474045 679.18808914 739.9769809 679.18867828 739.28898621 679.18928528 C715.84893886 679.20699586 692.56723713 678.75135478 669.25 676.25 C668.42716522 676.1631897 667.60433044 676.07637939 666.75656128 675.98693848 C587.64731578 667.60092613 511.13187658 647.75010076 383.71679688 588.52246094 C380.91674406 586.95334435 378.1073988 585.40183445 375.296875 583.8515625 C361.86441998 576.40028749 348.85415524 568.40633274 336 560 C335.29407715 559.53996582 334.5881543 559.07993164 333.86083984 558.60595703 C316.33946472 547.16050769 299.55858699 534.79127152 283 522 C282.31744141 521.47486816 281.63488281 520.94973633 280.93164062 520.40869141 C269.26475905 511.42277459 258.10935024 501.89057727 247.20703125 491.9921875 C245.26373999 490.23806619 243.29640552 488.52027306 241.3125 486.8125 C230.3034968 477.17147945 219.85585028 466.95700612 209.5 456.625 C208.98171631 456.1093045 208.46343262 455.59360901 207.92944336 455.06228638 C202.62109856 449.77486459 197.39523891 444.46207142 192.52050781 438.765625 C190.13639033 435.99717002 187.62403381 433.35179046 185.125 430.6875 C180.64132731 425.86763923 176.3837577 420.92496022 172.26171875 415.7890625 C170.25388219 413.31307752 168.19934502 410.88583343 166.11987305 408.4699707 C154.8625633 395.36285886 144.68038673 381.40082468 134.66357422 367.33447266 C133.54837614 365.7695293 132.43017558 364.20672148 131.30908203 362.64599609 C110.27540891 333.34287887 92.32234137 302.13497574 76 270 C75.27912581 268.59740946 74.55782823 267.19503637 73.8359375 265.79296875 C71.83786945 261.88705823 69.90566789 257.95173539 68 254 C67.57428711 253.11957031 67.14857422 252.23914062 66.70996094 251.33203125 C32.46623543 180.03654716 11.61781218 102.75320738 1.625 24.4375 C1.45701904 23.12966553 1.28903809 21.82183105 1.1159668 20.47436523 C0.96683838 19.24403564 0.81770996 18.01370605 0.6640625 16.74609375 C0.53467285 15.68060303 0.4052832 14.6151123 0.27197266 13.51733398 C-0.07546339 9.02405653 0 4.50668993 0 0 Z " fill="#FEFEFE" transform="translate(280,1084)"/>
<path d="M0 0 C44.21412524 8.34118722 87.55727812 22.63202819 129 40 C130.66337402 40.69706055 130.66337402 40.69706055 132.36035156 41.40820312 C188.6924509 65.22980887 242.50398056 95.6489578 291 133 C291.75861328 133.5789502 292.51722656 134.15790039 293.29882812 134.75439453 C302.0767621 141.45705152 310.69563042 148.30345559 319.0703125 155.50390625 C321.77693733 157.80995061 324.5317574 160.03448253 327.3125 162.25 C332.84448372 166.74372285 338.00694839 171.59859277 343.16723633 176.50878906 C346.23590243 179.42632172 349.31763642 182.28813678 352.546875 185.02734375 C358.66841709 190.34147748 364.31650338 196.16807756 370.03637695 201.90600586 C372.05764268 203.9326298 374.08419574 205.95385547 376.11132812 207.97460938 C382.28896656 214.1490616 388.34776313 220.33530178 394 227 C395.77362033 228.95477176 397.57586054 230.88099142 399.375 232.8125 C403.6687538 237.46038542 407.7353184 242.24416348 411.703125 247.17578125 C413.72540221 249.6623568 415.79175688 252.10304082 417.88232422 254.53222656 C429.13409603 267.63586085 439.31412452 281.59119564 449.32763672 295.65234375 C450.45685954 297.2375418 451.58876387 298.82083259 452.72314453 300.40234375 C461.7113389 312.94517708 470.01897352 325.79621591 478 339 C478.81970977 340.34151431 479.63997476 341.68268961 480.4609375 343.0234375 C490.75529026 359.90928209 500.05220955 377.37006485 509 395 C509.57911133 396.14065918 510.15822266 397.28131836 510.75488281 398.45654297 C525.84429694 428.32118936 538.26969318 459.31609994 549 491 C549.34047363 491.99692871 549.68094727 492.99385742 550.03173828 494.02099609 C567.94293584 546.84813399 584 606.88029929 584 663 C520.64 663 457.28 663 392 663 C390.83269604 654.2452203 389.69057707 645.57340278 388.88671875 636.79296875 C388.69186091 634.7376607 388.49644598 632.6824054 388.30053711 630.62719727 C388.15091019 629.04952072 388.15091019 629.04952072 387.9982605 627.43997192 C385.50560784 601.35144766 382.81522028 575.23171677 377.015625 549.6328125 C376.00577852 545.14744379 375.17755931 540.63567244 374.34790039 536.11401367 C369.91881852 512.12029004 364.08545486 488.34708721 357 465 C356.67950684 463.93458984 356.35901367 462.86917969 356.02880859 461.77148438 C345.36334371 426.42195104 333.03159464 391.7412633 318 358 C317.58234375 357.06172363 317.1646875 356.12344727 316.734375 355.15673828 C304.38564574 327.58547622 291.14940261 300.32225387 275.48730469 274.47070312 C274.12495329 272.20757179 272.79290254 269.93073949 271.4765625 267.640625 C260.80507682 249.09031526 249.16609517 231.14433133 236.43017578 213.94775391 C234.67186113 211.55310824 232.96238415 209.12647431 231.25512695 206.6953125 C216.57995327 185.83463572 200.16124035 166.10960424 183.01953125 147.23828125 C181.10847573 145.12022552 179.23794417 142.97285433 177.375 140.8125 C174.62105507 137.64609788 171.71495957 134.69359764 168.72265625 131.75390625 C167.04036927 130.0411016 165.48896241 128.26892555 163.9375 126.4375 C160.48067321 122.43321195 156.79527314 118.6821342 153.0625 114.9375 C152.48943115 114.35991943 151.9163623 113.78233887 151.32592773 113.18725586 C147.68358381 109.55726061 143.90907129 106.13744939 140.01977539 102.7746582 C136.65462789 99.81790042 133.43222461 96.7124701 130.1875 93.625 C124.84772776 88.58232787 119.43683173 83.73737719 113.6875 79.16015625 C111.2232813 77.17946883 108.81983577 75.14076091 106.42602539 73.07592773 C99.25241217 66.90308186 91.77961855 61.20588366 84.15966797 55.59765625 C81.95143231 53.96407111 79.75803124 52.31203821 77.56640625 50.65625 C54.1034226 33.01396814 28.99545388 17.55453957 3.28125 3.41796875 C1 2 1 2 0 0 Z " fill="#DE1717" transform="translate(1188,301)"/>
<path d="M0 0 C60.39 0 120.78 0 183 0 C183 7.50405684 182.80109278 14.49543096 181.875 21.875 C181.67922363 23.45583374 181.67922363 23.45583374 181.47949219 25.06860352 C175.13383515 74.45146337 164.46437708 122.67273311 149 170 C148.65001953 171.07588379 148.30003906 172.15176758 147.93945312 173.26025391 C133.38260142 217.62883311 113.86444449 260.82192061 90.57421875 301.26171875 C89.11244908 303.80439999 87.66355368 306.35390228 86.21875 308.90625 C66.63747091 343.33920372 43.57020894 375.54614319 18.49707031 406.16650391 C17.16580047 407.79694039 15.84393831 409.43504819 14.5234375 411.07421875 C9.9713327 416.71207293 5.23300382 422.12335167 0.328125 427.45703125 C-1.60694262 429.57067054 -3.50208297 431.70659848 -5.375 433.875 C-14.46428682 444.30424806 -24.06031832 454.22370557 -33.85595703 463.98632812 C-35.76582994 465.89078505 -37.67022149 467.80060819 -39.57421875 469.7109375 C-45.03232069 475.172009 -50.47119244 480.59876771 -56.35791016 485.60302734 C-58.91795081 487.78092693 -61.35313487 490.08417877 -63.8125 492.375 C-68.38432457 496.59398254 -73.07254844 500.61147468 -77.921875 504.51171875 C-80.22140759 506.37060486 -82.49913548 508.24614776 -84.765625 510.14453125 C-95.55661906 519.16363893 -106.67531544 527.66396269 -118 536 C-118.74862305 536.5554248 -119.49724609 537.11084961 -120.26855469 537.68310547 C-192.00724019 590.87198833 -274.68538727 629.51909318 -360.5625 653.4375 C-362.33669312 653.93286255 -362.33669312 653.93286255 -364.14672852 654.43823242 C-371.05222782 656.3219986 -377.93306652 657.8589057 -385 659 C-381.48013212 655.94475468 -377.83614764 653.71597297 -373.77075195 651.50024414 C-345.63427011 636.14985167 -318.93070191 617.08810432 -294 597 C-293.07058594 596.25363281 -292.14117188 595.50726562 -291.18359375 594.73828125 C-280.46631567 586.04901795 -270.02009698 577.06046477 -259.9140625 567.66796875 C-257.74105437 565.67847203 -255.54809941 563.74406202 -253.31616211 561.82324219 C-249.05163228 558.09602879 -245.02513868 554.16984384 -241.02734375 550.16015625 C-240.30059952 549.43436874 -239.57385529 548.70858124 -238.8250885 547.96080017 C-237.30037704 546.43676444 -235.7769085 544.91148431 -234.25463867 543.38500977 C-231.94366109 541.06867537 -229.62739229 538.75772922 -227.31054688 536.44726562 C-225.8199918 534.95604966 -224.329747 533.46452347 -222.83984375 531.97265625 C-222.15736069 531.29219742 -221.47487762 530.61173859 -220.77171326 529.91065979 C-216.85268985 525.97275766 -213.10999283 521.93135327 -209.48374939 517.72186279 C-207.57313391 515.50463007 -205.599751 513.34762035 -203.625 511.1875 C-199.80402862 506.94911157 -196.15752669 502.60120897 -192.5703125 498.1640625 C-190.64819539 495.7871519 -188.70034731 493.43324057 -186.7421875 491.0859375 C-179.3876666 482.25682594 -172.28232013 473.29847376 -165.48876953 464.03027344 C-164.49828188 462.67951986 -163.50447431 461.33119431 -162.50732422 459.98535156 C-113.76207684 394.18320502 -75.57709408 320.3776944 -29.859375 182.15991211 C-29.2043038 179.75122276 -28.53167942 177.35072622 -27.84375 174.95141602 C-24.76047133 164.14906747 -22.19265463 153.30248423 -19.875 142.3125 C-19.53823819 140.73882997 -19.20099901 139.16526203 -18.86328125 137.59179688 C-17.8943863 133.0641834 -16.94301277 128.53306874 -16 124 C-15.85922028 123.32585052 -15.71844055 122.65170105 -15.57339478 121.9571228 C-13.75930678 113.23311061 -12.2287756 104.50324575 -10.9375 95.6875 C-9.14965132 83.56028543 -9.14965132 83.56028543 -7.97265625 77.98828125 C-6.77791338 72.20060958 -6.14014547 66.37097387 -5.5 60.5 C-5.30772827 58.77390503 -5.30772827 58.77390503 -5.11157227 57.01293945 C-4.85563794 54.71402908 -4.60112332 52.41496014 -4.34814453 50.11572266 C-4.05770629 47.51644297 -3.75264989 44.92009653 -3.43359375 42.32421875 C-1.74129493 28.21284514 -0.9827278 14.24955308 0 0 Z " fill="#DEDEDE" transform="translate(1579,1084)"/>
<path d="M0 0 C1.14681747 -0.01886009 1.14681747 -0.01886009 2.31680298 -0.0381012 C20.3461731 -0.27686231 37.31200701 0.29258576 54.78515625 5.2734375 C55.71054199 5.53576172 56.63592773 5.79808594 57.58935547 6.06835938 C101.86687564 19.01400419 139.01031397 48.70792744 161.21484375 89.25390625 C179.609969 124.31831418 186.51092766 166.41111895 177.78515625 205.2734375 C177.61886719 206.03736816 177.45257812 206.80129883 177.28125 207.58837891 C170.13722341 239.57112758 154.42509303 266.80898102 131.78515625 290.2734375 C131.04910156 291.06105469 130.31304688 291.84867188 129.5546875 292.66015625 C103.67529261 319.67089081 68.00157119 333.57033944 31.78515625 339.2734375 C30.68429687 339.46679688 29.5834375 339.66015625 28.44921875 339.859375 C-16.14261733 344.89853771 -60.13787389 330.79663776 -95.2265625 303.5078125 C-129.42495936 276.18922024 -153.25764168 236.10295682 -158.21484375 192.2734375 C-161.73757455 157.63107275 -157.65252912 125.60545734 -142.21484375 94.2734375 C-141.89257812 93.61118164 -141.5703125 92.94892578 -141.23828125 92.26660156 C-122.02361898 53.19288285 -86.55186029 23.3105228 -45.66455078 8.85473633 C-30.88411492 3.83168512 -15.65627083 0.23709519 0 0 Z " fill="#FEFEFE" transform="translate(1015.21484375,853.7265625)"/>
</svg>
